<?xml version="1.0" standalone="no"?>
<!DOCTYPE svg PUBLIC "-//W3C//DTD SVG 20010904//EN"
 "http://www.w3.org/TR/2001/REC-SVG-20010904/DTD/svg10.dtd">
<svg version="1.0" xmlns="http://www.w3.org/2000/svg"
 width="983.000000pt" height="983.000000pt" viewBox="0 0 983.000000 983.000000"
 preserveAspectRatio="xMidYMid meet">
<metadata>
Created by potrace 1.14, written by Peter Selinger 2001-2017
</metadata>
<g transform="translate(0.000000,983.000000) scale(0.100000,-0.100000)"
fill="#000000" stroke="none">
<path d="M7973 6007 c-32 -38 -36 -49 -22 -58 27 -17 54 -8 82 28 15 20 26 37
25 38 -2 1 -17 5 -34 8 -25 5 -36 1 -51 -16z"/>
<path d="M7700 5891 c0 -26 3 -96 7 -158 5 -94 9 -112 23 -116 38 -10 42 5 38
157 -1 81 -5 151 -8 155 -3 4 -17 7 -32 7 -26 0 -28 -3 -28 -45z"/>
<path d="M7894 5926 c-42 -18 -57 -61 -70 -192 -5 -54 -3 -63 20 -90 14 -17
33 -32 43 -33 51 -6 88 -1 105 17 21 21 48 110 43 147 -1 14 1 25 4 25 6 0 7
61 1 68 -1 1 -3 6 -4 12 -1 11 -45 44 -62 46 -6 1 -20 4 -30 7 -11 4 -33 0
-50 -7z m80 -112 c-2 -57 -11 -121 -18 -132 -7 -12 -46 -12 -62 0 -11 8 -10
53 1 128 7 42 29 62 58 51 18 -7 22 -16 21 -47z"/>
<path d="M7511 5910 c-75 -18 -89 -66 -56 -190 2 -8 8 -33 14 -55 28 -107 201
-90 201 19 0 8 -11 16 -25 18 -18 4 -29 -1 -39 -17 -16 -24 -47 -37 -65 -26
-6 4 -18 42 -26 85 -18 92 -18 99 -5 91 6 -3 10 -1 10 4 0 16 41 13 54 -3 9
-11 17 -12 45 -2 l34 12 -29 32 c-32 36 -61 44 -113 32z"/>
<path d="M809 5872 c-40 -3 -46 -6 -42 -22 3 -11 18 -21 37 -25 69 -14 96 -29
111 -61 13 -28 15 -114 15 -616 0 -358 4 -608 11 -648 11 -72 40 -160 51 -160
5 0 8 -6 8 -14 0 -19 44 -70 108 -126 25 -21 126 -69 162 -76 16 -4 30 -9 30
-13 0 -4 8 -7 18 -7 9 0 44 -4 77 -9 70 -9 269 -10 305 -1 14 4 39 8 55 10 17
2 46 10 66 18 20 9 46 19 58 23 13 4 31 14 41 23 10 10 30 28 45 42 51 46 90
124 116 235 14 57 22 1412 8 1421 -6 4 -171 8 -205 5 -7 -1 -10 -140 -10 -445
1 -262 5 -442 10 -438 5 3 6 0 2 -6 -4 -7 -8 -107 -8 -224 -2 -324 -17 -402
-96 -467 -57 -48 -52 -46 -112 -58 -37 -8 -180 -10 -180 -3 0 3 -8 6 -17 7
-42 3 -63 8 -63 14 0 4 -11 10 -24 13 -33 8 -84 73 -110 137 -20 53 -21 71
-23 749 -2 382 -3 700 -3 707 0 8 -51 12 -191 13 -106 0 -194 2 -198 3 -3 1
-27 1 -52 -1z"/>
<path d="M2607 5872 c-10 -2 -17 -12 -17 -22 0 -13 13 -21 47 -30 54 -13 69
-23 87 -59 11 -22 11 -35 0 -81 -8 -30 -18 -64 -23 -75 -12 -25 -25 -69 -22
-74 2 -2 -1 -7 -6 -10 -7 -5 -39 -83 -47 -116 -2 -5 -9 -23 -16 -40 -7 -16
-15 -39 -17 -49 -2 -11 -8 -25 -13 -31 -5 -7 -7 -15 -3 -18 3 -4 2 -7 -3 -7
-5 0 -10 -8 -11 -17 -1 -10 -9 -36 -19 -58 -10 -22 -19 -48 -21 -58 -2 -10 -9
-30 -17 -45 -7 -15 -24 -56 -36 -92 -13 -36 -27 -76 -33 -90 -5 -14 -11 -29
-13 -35 -1 -5 -14 -39 -27 -75 -13 -36 -46 -123 -72 -195 -26 -71 -53 -143
-60 -160 -30 -67 -125 -334 -125 -349 0 -10 5 -14 11 -10 6 4 51 6 99 5 87 -2
100 2 106 34 2 10 11 34 134 370 34 94 79 217 100 275 l37 105 215 2 214 2 32
-92 c17 -51 45 -130 62 -177 17 -47 45 -123 61 -170 16 -47 51 -143 77 -215
l48 -130 147 -3 c128 -2 148 0 154 14 3 9 0 19 -6 24 -7 4 -12 10 -11 14 1 7
-32 99 -55 151 -7 17 -23 59 -35 95 -13 36 -29 79 -36 95 -7 17 -24 62 -39
100 -14 39 -33 86 -40 105 -8 19 -46 121 -85 225 -39 105 -84 224 -100 265
-16 41 -50 131 -75 200 -69 183 -125 332 -138 360 -5 14 -11 30 -11 35 -1 6
-10 31 -20 58 l-19 47 -126 1 c-69 0 -147 1 -172 2 -25 1 -53 1 -62 -1z m249
-457 c4 -11 6 -23 6 -27 -1 -5 2 -8 6 -8 4 0 9 -10 9 -22 1 -13 7 -24 12 -26
5 -2 7 -10 4 -18 -3 -8 0 -14 6 -14 6 0 10 -3 9 -7 -2 -10 16 -69 36 -114 8
-20 12 -39 9 -43 -4 -3 -1 -6 5 -6 7 0 12 -8 12 -18 0 -10 3 -22 7 -26 4 -4
13 -24 19 -44 l10 -37 -167 0 -168 0 2 23 c1 12 5 22 10 22 4 0 6 4 3 8 -2 4
4 28 15 52 11 24 21 53 24 64 2 12 4 21 5 21 1 0 3 9 5 19 2 10 7 22 12 25 4
3 9 14 11 25 2 10 8 30 14 45 6 14 11 29 10 34 -1 4 3 7 8 7 6 0 9 3 8 8 -3
16 15 82 23 82 5 0 9 8 10 18 0 18 5 10 25 -43z"/>
<path d="M3645 5872 c-52 -11 -31 -45 34 -56 22 -3 53 -17 68 -30 l28 -24 1
-571 c1 -314 4 -574 7 -577 3 -3 2 -17 -3 -30 -5 -13 -6 -24 -2 -24 8 0 7
-214 -2 -236 -3 -8 -2 -13 2 -10 4 2 7 -17 6 -44 -3 -67 -6 -162 -5 -177 1 -9
65 -11 274 -9 149 2 272 5 272 6 0 1 14 4 30 6 85 9 123 15 173 29 110 30 149
44 187 70 17 11 32 20 35 20 29 1 190 158 190 185 0 5 5 10 10 10 6 0 10 7 10
15 0 8 5 15 12 15 6 0 8 3 5 7 -4 3 -3 11 2 17 8 10 60 149 61 161 0 3 0 6 1
8 2 8 9 46 13 72 3 17 5 30 6 30 5 0 12 152 12 260 0 161 -5 245 -14 245 -3 0
-5 8 -4 18 2 9 -3 37 -10 62 -8 25 -13 45 -13 45 0 0 -3 9 -6 20 -12 34 -16
50 -17 55 0 3 -9 17 -19 32 -10 14 -19 32 -19 38 0 37 -145 190 -212 224 -18
9 -40 21 -48 25 -34 21 -120 51 -186 66 -141 32 -263 41 -554 44 -162 1 -297
4 -300 5 -3 1 -14 1 -25 -2z m651 -147 c162 -14 297 -102 361 -233 15 -32 27
-58 25 -60 -1 -1 4 -15 12 -30 8 -15 17 -44 19 -62 3 -19 6 -35 7 -35 3 0 8
-30 13 -86 3 -26 7 -51 9 -55 12 -20 -1 -377 -16 -444 -11 -54 -24 -98 -42
-145 -4 -11 -8 -26 -10 -34 -1 -8 -9 -18 -16 -22 -7 -5 -10 -9 -5 -9 8 0 -33
-80 -66 -126 -42 -59 -174 -142 -237 -150 -14 -1 -35 -5 -46 -7 -49 -12 -163
-11 -182 1 -9 7 -12 168 -12 753 l-1 744 38 6 c21 3 47 4 58 3 11 -1 52 -5 91
-9z"/>
<path d="M5163 5872 c-25 -2 -33 -8 -33 -23 0 -10 3 -19 8 -20 22 -2 61 -11
89 -20 67 -21 63 29 63 -892 l0 -834 480 0 c338 0 480 4 481 11 5 61 2 146 -6
149 -5 1 -119 2 -252 1 -134 -1 -243 2 -243 5 0 4 -8 7 -18 8 -53 4 -85 35
-101 98 -8 33 -14 341 -11 611 l0 31 223 1 c122 0 230 1 241 1 12 1 16 6 13
16 -4 8 -2 17 4 20 5 4 6 12 2 18 -4 7 -6 31 -6 54 l2 43 -99 -3 c-55 -1 -100
2 -100 6 0 5 -5 5 -11 1 -13 -8 -257 -9 -265 -2 -3 3 -5 120 -5 259 1 232 2
256 19 279 11 14 32 28 48 31 16 4 151 7 299 8 l270 1 -1 68 -2 67 -528 5
c-291 3 -544 4 -561 2z"/>
<path d="M8133 5843 c-8 -21 -16 -42 -17 -48 -1 -5 -12 -31 -23 -57 -12 -25
-24 -57 -28 -70 -4 -12 -12 -28 -17 -35 -12 -15 -2 -49 17 -57 20 -7 47 4 42
18 -2 6 2 17 10 24 7 8 10 18 7 24 -4 6 -1 14 5 18 7 4 13 17 14 29 2 31 21
20 24 -15 5 -50 4 -104 -1 -112 -9 -14 11 -34 38 -37 23 -3 27 2 37 38 6 23
14 47 19 52 4 6 10 22 13 36 4 14 14 43 23 65 34 76 36 108 9 112 -28 4 -53
-18 -57 -49 -2 -15 -9 -33 -16 -41 -6 -8 -8 -19 -4 -23 4 -5 2 -5 -5 -1 -6 3
-12 14 -12 24 -1 69 -10 125 -22 133 -26 16 -40 9 -56 -28z"/>
<path d="M7221 5811 c-9 -6 -13 -23 -12 -43 3 -54 9 -113 11 -113 1 0 3 -13 6
-30 5 -36 12 -70 14 -70 1 0 3 -13 5 -29 5 -38 17 -48 48 -41 21 6 25 11 21
32 -3 15 -9 34 -14 44 -8 14 -3 22 27 40 35 22 37 22 47 5 30 -51 43 -61 60
-47 9 7 16 10 16 5 0 -4 5 -3 11 3 13 13 -10 50 -67 113 -18 19 -41 44 -51 55
-27 30 -93 85 -101 85 -4 0 -13 -4 -21 -9z m89 -136 c0 -8 -4 -15 -9 -15 -5 0
-11 7 -15 15 -3 9 0 15 9 15 8 0 15 -7 15 -15z"/>
<path d="M8488 5638 c-23 -29 -49 -59 -56 -66 -73 -78 -83 -130 -32 -180 23
-24 37 -29 67 -27 30 2 45 11 82 52 124 135 137 158 102 180 -23 14 -31 8 -86
-62 -64 -82 -93 -107 -115 -95 -26 14 -17 35 50 111 30 34 63 71 72 82 17 19
16 20 -6 38 -13 11 -26 19 -29 19 -3 0 -25 -24 -49 -52z"/>
<path d="M7005 5663 c-107 -63 -108 -65 -74 -104 11 -13 32 -39 47 -57 15 -18
39 -46 55 -63 15 -17 27 -34 27 -39 0 -4 9 -17 20 -30 19 -22 20 -22 47 -5 56
36 90 82 88 120 0 19 -6 40 -13 47 -7 7 -12 15 -12 19 0 4 -16 24 -35 45 -19
20 -35 40 -35 43 0 9 -55 41 -72 41 -7 0 -27 -8 -43 -17z m81 -86 c16 -19 38
-45 50 -58 21 -26 20 -44 -2 -67 -19 -19 -24 -17 -45 17 -10 17 -23 31 -29 31
-5 0 -10 7 -10 15 0 8 -4 15 -8 15 -4 0 -16 13 -25 29 -17 28 -17 30 0 40 29
17 39 13 69 -22z"/>
<path d="M6816 5501 c-16 -18 -16 -20 9 -45 14 -15 37 -34 51 -42 30 -20 31
-35 2 -27 -13 2 -33 5 -45 4 -13 0 -23 4 -23 10 0 5 -5 7 -10 4 -6 -4 -17 -1
-25 5 -12 10 -19 8 -35 -11 -24 -30 -24 -32 0 -54 11 -10 20 -15 20 -11 0 4 7
0 16 -8 9 -9 32 -29 52 -44 21 -15 39 -29 42 -32 3 -3 24 -20 48 -38 42 -33
43 -33 66 -15 22 18 22 20 7 39 -9 10 -37 33 -63 49 -26 16 -44 33 -42 37 3 5
10 5 16 2 6 -4 23 -8 37 -9 35 -2 83 -16 97 -27 8 -6 19 1 34 19 19 24 20 28
6 31 -9 2 -16 8 -16 13 0 5 -6 9 -14 9 -8 0 -16 4 -18 8 -4 10 -181 152 -189
152 -3 0 -14 -9 -23 -19z"/>
<path d="M8748 5420 c-16 -5 -28 -6 -28 -3 0 3 -6 0 -14 -6 -8 -7 -25 -14 -37
-17 -13 -3 -28 -6 -34 -7 -5 -2 -16 -6 -22 -10 -7 -5 -17 -5 -23 -2 -5 3 -10
2 -10 -2 0 -5 -18 -16 -40 -26 -43 -18 -52 -44 -24 -68 13 -10 20 -10 44 4 39
24 53 21 72 -11 17 -28 16 -29 -14 -55 -16 -15 -27 -33 -24 -40 3 -6 27 -52
54 -102 64 -120 74 -125 183 -83 88 33 139 73 139 107 0 26 -38 124 -52 132
-6 4 -18 3 -27 -2 -13 -7 -59 -27 -81 -34 -3 -1 -26 -11 -52 -23 -26 -11 -55
-22 -65 -24 -10 -2 -21 -7 -24 -12 -4 -5 -11 -6 -17 -2 -6 4 4 22 25 44 19 20
51 62 71 92 19 30 38 57 42 60 17 12 31 54 26 76 -7 25 -21 28 -68 14z m-35
-96 c-3 -8 -13 -14 -21 -12 -9 2 -14 8 -11 13 2 6 7 9 12 8 4 -2 7 2 7 8 0 5
4 8 10 4 5 -3 7 -12 3 -21z m183 -185 c15 -25 -7 -55 -58 -78 -71 -32 -117
-28 -118 11 0 9 40 35 60 40 8 2 28 10 44 19 36 18 63 21 72 8z"/>
<path d="M7764 5399 c-15 -10 -31 -16 -36 -13 -4 3 -8 2 -8 -3 0 -4 -15 -14
-32 -22 -18 -8 -72 -33 -120 -57 -47 -23 -89 -40 -92 -37 -3 4 -6 1 -6 -6 0
-7 -4 -10 -9 -7 -5 4 -11 2 -13 -4 -2 -6 -14 -12 -27 -15 -55 -10 -35 -35 24
-30 27 2 45 -1 45 -7 0 -7 4 -7 13 -1 7 6 150 9 350 9 186 -1 343 2 349 5 7 4
-10 17 -38 29 -27 12 -76 35 -110 51 -33 16 -66 29 -72 29 -7 0 -12 4 -12 8 0
5 -18 15 -40 22 -22 7 -40 17 -40 22 0 4 -3 7 -7 6 -5 -1 -27 7 -50 19 -40 20
-42 20 -69 2z"/>
<path d="M6651 5264 c-7 -17 -8 -31 -1 -42 5 -9 10 -14 10 -10 0 3 32 -9 70
-28 39 -19 74 -34 78 -34 18 -1 52 -40 46 -54 -11 -28 -39 -22 -137 27 -94 48
-98 49 -112 31 -28 -37 -27 -39 160 -125 67 -31 115 -23 144 23 22 36 21 62
-4 103 -13 22 -25 37 -25 32 0 -4 -10 -1 -23 8 -13 8 -27 12 -30 8 -4 -3 -7
-2 -7 3 0 6 -20 18 -45 28 -25 11 -45 24 -45 29 0 6 -3 8 -6 4 -4 -3 -19 0
-34 8 -26 13 -28 13 -39 -11z"/>
<path d="M7885 5190 c-4 -6 -11 -8 -16 -5 -13 9 -17 -9 -22 -102 -4 -65 -2
-83 8 -83 8 0 17 -5 20 -11 4 -6 -2 -9 -17 -8 -46 4 -67 -1 -73 -20 -3 -11
-13 -22 -22 -25 -12 -5 -13 -3 -6 6 6 7 10 42 9 78 l-1 65 -33 3 c-18 2 -30 7
-27 12 3 4 14 6 25 3 18 -5 20 0 20 36 0 22 -3 42 -7 42 -58 10 -70 -1 -68
-61 0 -19 -2 -37 -6 -40 -19 -15 -17 -50 5 -93 13 -26 18 -47 12 -47 -15 0
-82 -75 -94 -107 -6 -16 -10 -37 -9 -48 2 -17 -3 -20 -40 -18 -24 0 -43 -3
-43 -8 0 -5 0 -12 0 -16 0 -10 13 -10 67 -2 l43 6 16 -56 c9 -31 17 -61 18
-67 3 -20 25 -42 75 -73 42 -28 73 -66 75 -96 2 -20 39 -95 48 -95 4 0 8 -19
7 -42 -2 -45 25 -125 46 -143 12 -10 16 -27 32 -122 5 -29 9 -32 57 -39 28 -4
54 -7 57 -6 4 1 34 -3 68 -9 67 -10 83 -7 74 17 -3 8 -8 13 -10 10 -10 -10
-41 30 -46 59 -5 40 10 95 27 95 8 0 22 12 31 28 10 15 24 30 30 34 12 7 12
42 1 93 -3 11 -5 23 -5 27 -1 4 -9 9 -19 12 -13 4 -18 16 -18 44 0 20 -4 48
-8 60 -7 22 -6 23 16 17 22 -7 42 -25 52 -49 3 -8 7 -8 13 0 4 6 16 13 25 17
12 4 15 14 12 31 -2 15 0 26 7 26 6 0 8 7 5 15 -3 9 1 18 8 21 14 5 14 33 1
53 -3 5 7 19 22 31 16 12 29 27 29 33 1 7 2 17 3 24 1 8 11 9 37 1 42 -11 47
-8 39 25 -5 17 -15 27 -36 31 -16 3 -29 9 -28 13 4 22 -3 33 -20 33 -11 0 -21
-6 -24 -12 -3 -10 -7 -10 -19 0 -9 7 -29 11 -44 8 l-29 -5 26 19 c20 15 26 29
28 65 2 41 -1 46 -25 55 -36 14 -61 4 -79 -31 -9 -16 -13 -29 -10 -29 4 0 -3
-13 -15 -30 -12 -16 -30 -30 -41 -30 -10 0 -18 -3 -17 -7 1 -5 -3 -18 -10 -29
-6 -12 -8 -24 -5 -28 3 -3 2 -6 -3 -6 -11 0 -12 -170 0 -188 5 -8 1 -12 -12
-12 -17 0 -19 -6 -17 -47 2 -27 4 -48 5 -48 1 0 4 -25 5 -55 2 -31 8 -68 14
-82 5 -14 7 -29 3 -32 -17 -17 -22 -107 -7 -131 12 -20 12 -36 0 -82 -7 -30
-37 -30 -71 2 -26 24 -29 36 -38 135 -3 25 -14 74 -26 110 -12 36 -25 88 -29
117 l-7 52 33 -1 c19 -1 36 -5 38 -9 6 -9 45 1 45 12 0 4 -16 11 -35 15 -19 3
-32 10 -30 15 3 4 13 5 21 2 20 -7 36 17 23 34 -6 6 -8 28 -5 47 6 37 4 39
-36 39 -11 0 -18 7 -18 18 0 11 4 19 9 19 5 0 7 20 5 45 -2 26 1 45 7 45 6 0
8 -4 5 -9 -8 -12 36 -19 62 -10 14 5 20 15 17 28 -2 13 7 27 31 43 18 13 34
30 35 38 3 40 -4 283 -10 325 0 6 -17 11 -36 12 -39 1 -37 6 -39 -94 0 -35 -3
-63 -6 -63 -3 0 -5 -42 -5 -93 l0 -92 -32 -3 c-19 -2 -33 -9 -33 -16 0 -19 27
-39 41 -30 8 5 9 3 4 -6 -6 -10 -3 -12 13 -8 12 4 22 2 22 -3 0 -9 -16 -13
-35 -9 -5 1 -17 2 -26 3 -11 1 -22 21 -34 59 -21 70 -28 131 -14 122 6 -3 9
36 8 108 -1 100 -3 116 -20 126 -12 8 -20 8 -24 2z m-18 -396 c-3 -3 -2 -16 3
-28 6 -17 5 -23 -6 -23 -9 0 -14 11 -14 29 0 15 5 28 12 28 6 0 9 -3 5 -6z
m-157 -33 c5 -11 10 -37 10 -59 0 -27 7 -45 23 -60 45 -43 66 -71 58 -76 -4
-3 -28 17 -51 46 -32 37 -44 60 -45 87 -1 20 -7 46 -14 59 -7 13 -8 22 -2 22
6 0 15 -9 21 -19z m545 -7 c15 -14 34 -23 41 -20 8 3 14 -1 14 -9 0 -8 -4 -15
-9 -15 -13 0 -20 -50 -7 -50 6 0 3 -5 -7 -11 -13 -8 -22 -7 -34 3 -9 7 -14 9
-11 3 3 -5 -1 -16 -8 -23 -13 -11 -14 -9 -8 15 8 37 6 77 -6 108 -12 32 0 32
35 -1z m-360 -35 c-3 -12 -7 -24 -10 -27 -3 -3 -3 5 -1 19 6 30 5 29 10 29 3
0 3 -10 1 -21z m-35 -3 c0 -8 -4 -18 -10 -21 -5 -3 -10 3 -10 14 0 12 5 21 10
21 6 0 10 -6 10 -14z m310 -26 c0 -11 -4 -20 -9 -20 -7 0 -8 17 -2 38 4 10 11
-2 11 -18z m174 5 c-4 -8 -10 -15 -15 -15 -4 0 -6 7 -3 15 4 8 10 15 15 15 4
0 6 -7 3 -15z m-469 -45 c3 -5 -3 -10 -15 -10 -12 0 -18 5 -15 10 3 6 10 10
15 10 5 0 12 -4 15 -10z m295 -15 c-5 -14 -7 -32 -4 -40 4 -8 2 -15 -3 -15 -5
0 -9 18 -9 40 0 25 5 40 13 40 9 0 10 -7 3 -25z m120 -34 c0 -5 -9 -13 -20
-16 -16 -5 -19 -13 -15 -36 6 -35 -3 -36 -40 -7 -23 18 -25 22 -11 30 9 5 21
6 28 2 7 -4 8 -3 4 4 -5 8 0 12 13 12 12 0 21 5 21 10 0 6 5 10 10 10 6 0 10
-4 10 -9z m-420 -68 c0 -12 -3 -14 -8 -7 -4 7 -16 14 -27 17 -15 4 -14 5 8 6
20 1 27 -4 27 -16z m-16 -38 c3 -9 0 -15 -9 -15 -9 0 -12 6 -9 15 4 8 7 15 9
15 2 0 5 -7 9 -15z m313 -195 c1 -11 -2 -22 -6 -24 -6 -4 -7 26 -2 42 3 8 7
-1 8 -18z m-8 -57 c-7 -10 -14 -20 -16 -22 -1 -2 -1 6 0 18 1 11 8 21 15 21
12 0 12 -3 1 -17z"/>
<path d="M7509 5176 c-3 -31 -7 -82 -14 -191 -4 -66 -7 -122 -8 -125 -1 -3 5
-22 13 -42 11 -31 19 -38 41 -38 24 0 27 5 34 48 9 49 8 315 0 343 -6 17 -64
22 -66 5z"/>
<path d="M6554 5012 c-3 -15 -11 -45 -17 -67 -6 -22 -11 -46 -13 -52 -2 -13
70 -38 132 -48 16 -2 61 -13 99 -24 51 -13 72 -16 77 -7 10 15 10 67 1 64 -5
-1 -30 2 -58 7 -27 5 -54 8 -58 6 -5 -1 -7 18 -6 41 3 63 1 67 -23 65 -28 -1
-38 -14 -38 -48 0 -15 -7 -29 -15 -33 -23 -8 -34 22 -22 61 12 37 4 51 -31 58
-17 3 -23 -2 -28 -23z"/>
<path d="M8960 4969 c-19 -5 -48 -11 -65 -14 -62 -9 -161 -31 -171 -38 -7 -4
-6 -30 3 -83 7 -43 15 -79 17 -81 2 -2 16 -1 31 3 26 6 27 8 20 59 -7 58 -5
61 40 66 23 3 30 0 33 -16 9 -62 12 -66 40 -63 26 3 27 6 25 51 -2 34 1 47 11
47 18 0 39 -26 32 -39 -4 -5 -2 -12 3 -16 6 -3 8 -12 4 -20 -4 -11 3 -15 25
-15 17 0 34 5 37 10 4 6 -1 40 -10 75 -9 36 -14 69 -11 73 6 11 -22 11 -64 1z"/>
<path d="M7301 4949 c-25 -15 -31 -23 -22 -32 6 -6 11 -19 11 -29 0 -10 17
-33 38 -52 l37 -35 -17 -29 c-21 -35 -23 -82 -5 -101 10 -11 10 -13 0 -7 -7 4
-13 3 -13 -2 0 -5 -33 -15 -74 -23 -61 -10 -76 -17 -85 -35 -10 -24 0 -41 18
-30 5 4 8 -2 6 -11 -1 -10 1 -25 5 -33 5 -9 11 -41 14 -73 4 -32 11 -69 16
-82 5 -14 7 -25 4 -25 -4 0 -1 -6 5 -13 6 -8 8 -17 5 -20 -4 -3 -3 -14 1 -24
5 -10 7 -26 6 -35 -1 -10 1 -18 6 -18 4 0 9 -23 10 -51 2 -28 7 -58 12 -67 7
-13 3 -20 -19 -34 -26 -15 -28 -19 -17 -42 9 -19 20 -26 42 -26 17 0 37 4 45
10 9 6 17 5 22 -3 4 -6 29 -12 55 -13 l49 -1 -4 51 c-2 28 1 77 6 108 5 36 5
61 -1 67 -21 21 -10 196 14 237 24 40 24 61 -3 104 -26 42 -26 124 0 154 23
25 16 55 -24 96 -28 30 -38 50 -43 91 -2 12 -42 49 -54 49 -7 0 -27 -9 -46
-21z m89 -219 c0 -5 -5 -10 -11 -10 -5 0 -7 5 -4 10 3 6 8 10 11 10 2 0 4 -4
4 -10z m-66 -135 c-10 -8 -26 -15 -34 -15 -8 0 -26 -3 -40 -6 -21 -4 -22 -3
-8 5 9 6 28 12 43 13 14 1 31 8 37 15 6 8 13 11 16 8 3 -3 -3 -12 -14 -20z
m31 -105 c0 -28 -3 -50 -6 -50 -8 0 -40 -48 -43 -64 -2 -6 -6 -28 -11 -48 -9
-44 -24 -50 -27 -10 -1 30 -2 37 -11 72 -4 14 -8 39 -11 57 -2 17 -7 36 -10
41 -11 17 49 48 99 51 17 1 20 -5 20 -49z m15 -202 c0 -18 -2 -20 -9 -8 -6 8
-7 18 -5 22 9 14 14 9 14 -14z m-57 -44 c9 -19 17 -41 17 -49 0 -8 4 -15 8
-15 7 0 32 -57 32 -73 0 -4 -8 -5 -17 -3 -35 6 -52 18 -51 34 0 9 -2 31 -5 47
-21 106 -16 123 16 59z m77 6 c0 -5 -2 -10 -4 -10 -3 0 -8 5 -11 10 -3 6 -1
10 4 10 6 0 11 -4 11 -10z"/>
<path d="M6629 4673 c-2 -22 3 -137 7 -161 23 -133 73 -285 126 -385 19 -35
28 -42 43 -37 34 12 34 41 -1 110 -34 69 -70 161 -79 207 -3 15 -8 35 -10 43
-7 32 -17 118 -19 170 -2 54 -3 55 -34 58 -18 2 -32 0 -33 -5z"/>
<path d="M8869 4647 c0 -37 -7 -106 -15 -157 -3 -19 -5 -35 -5 -35 8 0 -49
-167 -79 -230 -40 -85 -42 -108 -9 -125 24 -14 29 -13 29 6 0 9 9 31 19 48 34
55 81 188 106 296 4 19 14 122 17 180 3 44 2 45 -30 47 -30 1 -32 -1 -33 -30z"/>
<path d="M7580 4643 c-35 -14 -39 -52 -9 -94 11 -16 24 -27 28 -25 4 3 13 1
20 -3 10 -7 10 -13 2 -29 -6 -12 -18 -68 -27 -124 -34 -228 -55 -292 -105
-318 -10 -6 -19 -17 -19 -25 0 -11 9 -14 37 -10 20 2 39 9 42 14 3 5 15 10 26
12 15 3 21 15 27 49 3 25 19 70 34 100 15 30 28 73 29 95 1 22 5 47 8 55 3 8
8 27 11 42 3 15 12 33 19 40 27 27 59 106 37 93 -10 -6 -63 44 -104 98 -29 38
-31 39 -56 30z"/>
<path d="M6833 4054 c-25 -28 -20 -67 11 -87 19 -13 27 -13 54 -1 26 10 32 19
32 42 0 60 -60 88 -97 46z"/>
<path d="M8656 4059 c-40 -32 -33 -79 14 -97 34 -13 70 11 70 47 0 31 -8 44
-36 59 -18 10 -27 8 -48 -9z"/>
<path d="M8540 3900 c-50 -52 -172 -150 -187 -150 -6 0 -21 -8 -34 -19 -13
-10 -35 -22 -49 -26 -14 -4 -27 -11 -30 -14 -6 -8 -123 -53 -130 -50 -3 1 -15
-3 -26 -9 -12 -6 -36 -14 -55 -17 -19 -3 -47 -9 -64 -14 -16 -4 -38 -7 -47 -5
-17 2 -20 -5 -20 -41 0 -31 3 -35 25 -30 12 2 36 6 52 9 38 5 83 15 115 26 46
15 60 19 65 20 6 1 78 32 140 61 90 41 202 122 308 222 20 20 37 38 37 41 0 9
-35 41 -46 42 -5 1 -29 -20 -54 -46z"/>
<path d="M6946 3924 c-9 -8 -16 -19 -16 -24 0 -11 67 -80 79 -80 5 0 11 -6 14
-12 8 -22 158 -124 242 -166 112 -56 231 -95 325 -107 19 -3 45 -7 56 -10 15
-3 23 1 26 13 7 27 -6 55 -28 58 -10 2 -38 6 -62 9 -23 3 -55 10 -70 16 -15 6
-28 10 -29 10 -2 -1 -4 -1 -5 0 -2 0 -10 2 -18 4 -63 12 -273 117 -300 150 -7
8 -18 15 -24 15 -6 0 -45 31 -86 70 -41 38 -78 70 -82 70 -4 0 -14 -7 -22 -16z"/>
<path d="M1743 3903 c4 -3 0 -14 -9 -24 -8 -9 -17 -23 -18 -31 -1 -7 -12 -35
-25 -63 -13 -27 -24 -54 -25 -60 -3 -11 -51 -119 -68 -153 -22 -43 -29 -4 -29
161 l1 167 -24 0 c-13 0 -26 -6 -28 -12 -2 -7 -3 -69 -3 -137 l2 -124 -134
137 c-74 75 -137 135 -141 132 -5 -3 -8 -331 -3 -369 1 -5 11 -7 24 -5 22 3
22 6 21 131 -1 101 2 127 12 127 8 0 14 -3 14 -7 0 -5 50 -59 110 -122 61 -62
110 -117 110 -122 0 -5 3 -9 8 -10 4 0 15 -2 25 -4 14 -3 17 1 13 13 -4 12 -2
12 9 -3 9 -11 19 -19 23 -17 15 7 42 36 42 45 0 5 7 23 15 41 15 31 16 32 83
30 37 -1 70 -2 74 -3 5 -1 21 -39 27 -66 5 -21 24 -35 47 -35 24 0 33 23 14
35 -6 4 -8 11 -5 16 4 5 1 9 -4 9 -6 0 -11 6 -11 14 0 12 -23 66 -81 193 -10
24 -19 47 -19 53 0 5 -5 10 -11 10 -5 0 -8 3 -6 8 7 12 -11 52 -24 52 -7 0 -9
-3 -6 -7z m36 -172 l28 -58 -53 -1 c-30 0 -54 3 -54 6 0 4 9 24 20 45 11 20
20 39 20 42 0 3 0 10 0 15 0 22 11 7 39 -49z"/>
<path d="M2785 3877 c-8 -19 -15 -40 -17 -48 -2 -8 -5 -16 -8 -19 -11 -11 -50
-101 -50 -115 0 -8 -4 -15 -10 -15 -5 0 -9 -3 -8 -7 1 -5 -5 -21 -12 -38 -7
-16 -14 -32 -15 -35 -9 -27 -19 -40 -31 -40 -8 0 -14 4 -14 8 0 5 -10 21 -23
36 -12 14 -31 40 -40 56 -15 24 -15 30 -4 30 21 0 64 47 70 76 8 43 -11 92
-41 108 -37 18 -98 28 -130 21 l-27 -5 2 -163 c2 -225 -1 -207 27 -207 22 0
23 4 24 58 0 84 1 92 10 92 4 0 12 -8 17 -19 6 -10 26 -43 47 -74 30 -45 42
-55 70 -58 55 -7 66 0 88 54 l22 52 71 0 c72 0 72 0 90 -34 9 -19 17 -40 17
-48 0 -16 36 -25 86 -21 l39 3 0 122 c0 67 3 124 7 128 3 4 26 -15 50 -41 23
-26 61 -66 83 -89 22 -23 62 -66 89 -94 26 -29 50 -50 53 -47 8 7 6 372 -1
385 -4 6 -16 11 -26 11 -18 0 -20 -10 -22 -136 l-3 -137 -71 74 c-40 41 -100
104 -135 141 -34 38 -65 65 -68 62 -3 -3 -7 -78 -8 -167 0 -89 -2 -171 -2
-182 -1 -12 -13 3 -31 40 -54 113 -108 244 -102 249 3 3 0 6 -6 6 -6 0 -13 14
-17 30 -9 39 -23 38 -40 -3z m-235 -45 c44 -35 22 -97 -36 -104 -25 -2 -29 1
-32 22 -4 46 -3 80 3 90 10 16 41 12 65 -8z m272 -71 c-2 -8 3 -21 11 -30 8
-9 17 -26 19 -38 5 -20 2 -21 -40 -21 -26 0 -50 2 -54 4 -4 3 1 22 12 42 11
20 20 43 20 50 0 8 8 12 18 10 9 -2 16 -10 14 -17z"/>
<path d="M5105 3898 c-72 -20 -98 -79 -64 -143 10 -21 16 -25 93 -62 70 -33
80 -95 19 -122 -33 -15 -55 -7 -82 28 -23 30 -61 33 -61 4 0 -19 41 -73 52
-67 4 3 11 -1 14 -9 7 -20 85 -15 119 7 49 32 64 119 27 159 -12 12 -43 33
-69 47 -26 14 -53 30 -60 36 -20 19 -11 55 18 70 24 12 30 11 52 -6 30 -24 55
-26 64 -4 13 34 -72 77 -122 62z"/>
<path d="M5794 3885 c-3 -14 -11 -25 -17 -25 -6 0 -8 -3 -5 -6 6 -6 -30 -92
-108 -260 -30 -63 -30 -71 0 -76 21 -4 27 2 48 51 l24 56 65 -1 c35 -1 69 -2
75 -3 6 -1 16 -18 22 -40 18 -58 30 -63 133 -62 123 2 165 20 213 92 25 39 28
136 5 179 -25 47 -44 70 -58 70 -6 0 -11 3 -11 8 0 14 -71 29 -132 28 l-61 -1
-2 -170 c-1 -93 -3 -172 -4 -175 -2 -4 -43 67 -46 80 -1 3 -11 27 -23 53 -12
27 -22 51 -22 53 0 5 -38 92 -51 116 -5 10 -9 24 -9 32 0 26 -29 27 -36 1z
m349 -56 c34 -16 68 -69 71 -112 4 -62 -46 -131 -103 -142 -11 -2 -24 -6 -29
-8 -4 -3 -16 -1 -27 3 -15 5 -20 16 -20 44 0 20 3 36 8 36 4 0 4 8 0 18 -11
22 -10 153 1 170 9 15 56 11 99 -9z m-313 -84 c0 -13 4 -25 9 -27 5 -1 11 -12
13 -23 2 -17 -3 -20 -32 -20 -19 0 -40 -4 -46 -8 -17 -10 -25 20 -10 35 7 8
19 31 25 51 11 31 15 36 27 26 8 -6 14 -22 14 -34z"/>
<path d="M927 3893 c-3 -5 -4 -75 -3 -157 1 -108 5 -151 14 -154 6 -2 12 -10
12 -17 0 -7 15 -22 33 -33 41 -24 111 -23 150 3 50 32 57 60 57 220 l0 145
-25 0 -25 0 0 -143 c0 -115 -3 -147 -16 -165 -9 -13 -22 -21 -30 -18 -8 3 -14
1 -14 -4 0 -20 -66 0 -88 27 -21 26 -22 37 -22 153 1 69 1 131 1 138 -1 13
-37 17 -44 5z"/>
<path d="M2145 3881 c-91 -42 -127 -126 -101 -236 15 -66 94 -126 169 -130
101 -5 183 65 193 164 l3 36 -81 -1 c-73 -1 -82 -3 -89 -22 -10 -27 -5 -30 54
-27 26 1 50 -2 53 -7 8 -12 -21 -54 -51 -74 -28 -18 -105 -27 -105 -12 0 5 -5
6 -10 3 -14 -9 -90 68 -91 91 0 11 -2 28 -4 39 -2 11 4 38 14 61 23 51 79 88
133 87 41 -1 108 -39 108 -61 0 -10 5 -10 20 -2 34 18 24 48 -27 80 -56 36
-126 40 -188 11z"/>
<path d="M3492 3739 c2 -119 6 -163 16 -167 6 -2 12 -9 12 -15 0 -20 81 -47
125 -41 40 5 110 58 99 75 -2 4 -1 10 4 13 5 3 8 31 7 63 0 32 3 68 7 81 4 12
3 22 -2 22 -6 0 -6 9 -1 23 5 13 5 30 0 39 -6 11 -5 19 1 23 16 10 -8 45 -30
45 -12 0 -20 -7 -21 -17 0 -10 -2 -75 -3 -145 -1 -120 -3 -128 -25 -147 -13
-12 -27 -21 -30 -22 -46 -6 -58 -3 -82 21 -25 25 -27 32 -29 136 -3 176 -2
169 -28 172 l-23 4 3 -163z"/>
<path d="M3799 3893 c-1 -5 0 -24 0 -43 2 -49 3 -91 2 -115 -1 -11 0 -46 1
-77 2 -32 0 -58 -5 -58 -4 0 -4 -8 1 -17 4 -10 7 -28 6 -40 -1 -26 27 -32 43
-10 10 13 10 208 -1 225 -3 6 -1 14 4 17 10 6 68 -49 218 -209 29 -31 55 -56
57 -56 2 0 9 10 16 21 6 12 7 19 2 16 -5 -3 -9 68 -9 169 1 136 -2 175 -12
179 -37 14 -39 8 -37 -122 1 -71 0 -131 -2 -136 -4 -7 -118 105 -216 214 -41
45 -66 60 -68 42z"/>
<path d="M4180 3710 l0 -190 25 0 25 0 0 190 -1 190 -25 0 -24 0 0 -190z"/>
<path d="M4240 3891 c0 -10 45 -133 65 -176 7 -16 28 -72 45 -122 18 -51 35
-93 39 -93 3 0 30 64 60 143 30 78 64 162 75 187 l21 45 5 -175 5 -175 105 -2
c58 -1 100 0 94 3 -7 3 -10 13 -7 23 4 16 -2 19 -39 19 -23 0 -58 0 -75 1
l-33 1 0 65 0 65 75 0 c67 0 75 2 75 19 0 25 -19 31 -90 31 l-59 0 2 48 2 47
70 3 c39 2 74 7 79 13 6 6 5 9 -5 9 -12 0 -12 1 0 9 25 16 -24 22 -148 19
l-113 -3 -40 -110 c-22 -60 -43 -121 -47 -135 l-8 -25 -11 25 c-23 57 -71 187
-77 210 -4 14 -13 28 -19 32 -15 11 -46 10 -46 -1z"/>
<path d="M4788 3894 c-3 -8 -3 -287 1 -351 1 -17 7 -23 24 -23 22 0 23 4 23
68 -1 68 10 89 29 56 5 -10 14 -23 18 -28 4 -6 21 -30 38 -53 24 -34 37 -43
60 -43 16 0 29 2 29 5 0 6 -61 90 -87 121 -23 25 -27 44 -10 44 21 1 51 33 64
68 16 45 1 93 -36 115 -33 19 -146 35 -153 21z m112 -59 c31 -16 40 -53 21
-83 -9 -14 -80 -34 -82 -23 -4 22 -4 98 -1 109 5 16 27 15 62 -3z"/>
<path d="M5277 3893 c-3 -5 -4 -89 -3 -188 l1 -180 23 0 c24 0 24 0 23 140 0
252 1 235 -20 235 -11 0 -22 -3 -24 -7z"/>
<path d="M5370 3711 l0 -191 58 0 c31 0 73 5 94 10 90 25 146 147 113 245 -28
79 -95 119 -207 124 l-58 2 0 -190z m137 124 c79 -33 113 -120 74 -192 -11
-21 -61 -66 -61 -55 0 4 -4 2 -8 -5 -8 -13 -72 -20 -89 -10 -12 8 -17 197 -7
250 7 32 34 36 91 12z"/>
<path d="M7740 3595 c-18 -21 -15 -62 5 -85 17 -19 57 -19 81 1 15 12 8 80 -9
91 -20 13 -64 9 -77 -7z"/>
</g>
</svg>
